<mxfile modified="2022-05-02T01:22:32.698Z" host="app.diagrams.net" agent="5.0 (Windows NT 10.0; Win64; x64) AppleWebKit/537.36 (KHTML, like Gecko) Chrome/100.0.4896.127 Safari/537.36 Edg/100.0.1185.50" etag="ewDASloySL9iGrPGXA1n" compressed="false" version="17.5.0" type="google">
  <diagram id="sYI7F_86MUgJoxtKeTnt" name="SYSTEM CONTEXT VIEW">
    <mxGraphModel grid="1" page="1" gridSize="10" guides="1" tooltips="1" connect="1" arrows="1" fold="1" pageScale="1" pageWidth="827" pageHeight="1169" math="0" shadow="0">
      <root>
        <mxCell id="-5lz5MB07r6ATgKLeakf-0" />
        <mxCell id="MxgI87lIxY2X0SS02bog-0" value="About" style="" parent="-5lz5MB07r6ATgKLeakf-0" />
        <UserObject label="" tooltip="The System Context View describes the System in Context to one or more of various other aspects, including:&#xa;&#xa;&#xa;&#xa;- Business Strategies&#xa;&#xa;- Schedules&#xa;&#xa;- Budgets (where appropriate)&#xa;&#xa;- Stakeholders&#xa;&#xa;- Business User Roles&#xa;&#xa;- Systems to Integrate with&#xa;&#xa;- Constraints (Agreements, Principles, Technical)&#xa;&#xa;- Issues and Risks&#xa;&#xa;- Options and Decisions&#xa;&#xa;- etc." id="8yo8HRc1npa4OYky7nrS-0">
          <mxCell style="shape=image;html=1;verticalAlign=top;verticalLabelPosition=bottom;labelBackgroundColor=#ffffff;imageAspect=0;aspect=fixed;image=https://cdn1.iconfinder.com/data/icons/hawcons/32/699014-icon-28-information-128.png;shadow=0;dashed=0;fontFamily=Helvetica;fontSize=12;fontColor=#000000;align=center;strokeColor=#000000;fillColor=#505050;dashPattern=1 1;" vertex="1" parent="MxgI87lIxY2X0SS02bog-0">
            <mxGeometry x="660" y="460" width="20" height="20" as="geometry" />
          </mxCell>
        </UserObject>
        <mxCell id="-5lz5MB07r6ATgKLeakf-1" value="TItle" style="" parent="-5lz5MB07r6ATgKLeakf-0" />
        <mxCell id="-5lz5MB07r6ATgKLeakf-2" value="Context (System)&lt;br&gt;View" style="text;html=1;strokeColor=none;fillColor=none;align=center;verticalAlign=middle;whiteSpace=wrap;rounded=0;fontSize=48;opacity=30;" vertex="1" parent="-5lz5MB07r6ATgKLeakf-1">
          <mxGeometry x="160" y="280" width="480" height="160" as="geometry" />
        </mxCell>
      </root>
    </mxGraphModel>
  </diagram>
</mxfile>
